<svg width="20" height="20" viewBox="0 0 20 20" fill="none" xmlns="http://www.w3.org/2000/svg">
<path fill-rule="evenodd" clip-rule="evenodd" d="M10 1C5.02944 1 1 5.02944 1 10C1 14.9706 5.02944 19 10 19C14.9706 19 19 14.9706 19 10C19 5.02944 14.9706 1 10 1ZM1.64711 10C1.64711 5.38683 5.38683 1.64711 10 1.64711C14.6132 1.64711 18.3529 5.38683 18.3529 10C18.3529 11.7681 17.8035 13.4079 16.8662 14.758C16.4678 12.2782 14.7313 10.2461 12.4211 9.42504C12.9268 8.84882 13.2333 8.09356 13.2333 7.26671C13.2333 5.45861 11.7675 3.99286 9.95944 3.99286C8.15134 3.99286 6.68558 5.45861 6.68558 7.26671C6.68558 8.1428 7.02971 8.93852 7.59016 9.52607C5.31681 10.4436 3.65144 12.5518 3.36772 15.0785C2.28851 13.6712 1.64711 11.9105 1.64711 10ZM3.9924 15.8034C5.51128 17.3754 7.64148 18.3529 10 18.3529C12.5012 18.3529 14.7456 17.2536 16.2764 15.5118C16.1336 12.8586 14.3082 10.652 11.8479 9.94136C11.3143 10.3188 10.6627 10.5406 9.95944 10.5406C9.30512 10.5406 8.69563 10.3486 8.18422 10.0179C5.76065 10.8302 4.01123 13.1116 3.9924 15.8034ZM7.353 7.26671C7.353 5.82722 8.51994 4.66028 9.95944 4.66028C11.3989 4.66028 12.5659 5.82722 12.5659 7.26671C12.5659 8.70621 11.3989 9.87315 9.95944 9.87315C9.41343 9.87315 8.90664 9.70526 8.48787 9.41829C8.45901 9.3879 8.42478 9.36335 8.38721 9.34574C7.7589 8.86985 7.353 8.11568 7.353 7.26671Z" fill="#5A6FDD" stroke="#5A6FDD" stroke-width="0.4" stroke-miterlimit="10" stroke-linecap="round" stroke-linejoin="round"/>
</svg>
