<svg width="28" height="28" viewBox="0 0 28 28" fill="none" xmlns="http://www.w3.org/2000/svg">
  <path fill-rule="evenodd" clip-rule="evenodd" d="M14 5C9.02944 5 5 9.02944 5 14C5 18.9706 9.02944 23 14 23C18.9706 23 23 18.9706 23 14C23 9.02944 18.9706 5 14 5ZM5.64711 14C5.64711 9.38683 9.38683 5.64711 14 5.64711C18.6132 5.64711 22.3529 9.38683 22.3529 14C22.3529 15.7681 21.8035 17.4079 20.8662 18.758C20.4678 16.2782 18.7313 14.2461 16.4211 13.425C16.9268 12.8488 17.2333 12.0936 17.2333 11.2667C17.2333 9.45861 15.7675 7.99286 13.9594 7.99286C12.1513 7.99286 10.6856 9.45861 10.6856 11.2667C10.6856 12.1428 11.0297 12.9385 11.5902 13.5261C9.31681 14.4436 7.65144 16.5518 7.36772 19.0785C6.28851 17.6712 5.64711 15.9105 5.64711 14ZM7.9924 19.8034C9.51128 21.3754 11.6415 22.3529 14 22.3529C16.5012 22.3529 18.7456 21.2536 20.2764 19.5118C20.1336 16.8586 18.3082 14.652 15.8479 13.9414C15.3143 14.3188 14.6627 14.5406 13.9594 14.5406C13.3051 14.5406 12.6956 14.3486 12.1842 14.0179C9.76065 14.8302 8.01123 17.1116 7.9924 19.8034ZM11.353 11.2667C11.353 9.82722 12.5199 8.66028 13.9594 8.66028C15.3989 8.66028 16.5659 9.82722 16.5659 11.2667C16.5659 12.7062 15.3989 13.8731 13.9594 13.8731C13.4134 13.8731 12.9066 13.7053 12.4879 13.4183C12.459 13.3879 12.4248 13.3634 12.3872 13.3457C11.7589 12.8698 11.353 12.1157 11.353 11.2667Z" fill="#201E33" stroke="#201E33" stroke-width="0.4" stroke-miterlimit="10" stroke-linecap="round" stroke-linejoin="round"/>
</svg>
